<svg xmlns="http://www.w3.org/2000/svg" id="molecular-structure" viewBox="0 0 64 64">
  <path d="m48,41v-18s-.01-.04-.01-.05c0-.03-.01-.06-.01-.09-.01-.1-.04-.19-.08-.28-.01-.02-.01-.04-.02-.05,0-.01-.01-.01-.01-.02-.06-.1-.13-.19-.22-.26-.02-.02-.05-.04-.07-.06-.04-.02-.07-.05-.11-.07l-15-8c-.29-.16-.65-.16-.94,0l-15,8s-.07.05-.11.07c-.02.02-.05.04-.07.06-.09.07-.16.16-.22.26,0,0-.01,0-.01.02-.01.01-.01.03-.02.05-.04.09-.07.18-.08.27,0,.04-.01.07-.01.1,0,0-.01.03-.01.05v18c0,.37.2.71.53.88l15,8c.15.08.31.12.47.12s.32-.04.47-.12l15-8c.33-.17.53-.51.53-.88Zm-16-11.13l-12.87-6.87,12.87-6.87,12.87,6.87-12.87,6.87Zm14,10.53l-13,6.93v-15.73l13-6.93v15.73Z"></path>
  <path d="m56,41.14v-18.28c1.72-.45,3-2,3-3.86,0-2.21-1.79-4-4-4-1.13,0-2.14.47-2.87,1.22l-16.28-9.19c.09-.33.15-.67.15-1.03,0-2.21-1.79-4-4-4s-4,1.79-4,4c0,.36.06.7.15,1.03l-16.28,9.19c-.73-.75-1.74-1.22-2.87-1.22-2.21,0-4,1.79-4,4,0,1.86,1.28,3.41,3,3.86v18.28c-1.72.45-3,2-3,3.86,0,2.21,1.79,4,4,4,1.13,0,2.14-.47,2.87-1.22l16.28,9.19c-.09.33-.15.67-.15,1.03,0,2.21,1.79,4,4,4s4-1.79,4-4c0-.36-.06-.7-.15-1.03l5.04-2.85c.48-.27.65-.88.38-1.36-.27-.48-.88-.65-1.36-.38l-5.04,2.85c-.73-.75-1.74-1.22-2.87-1.22s-2.14.47-2.87,1.22l-16.28-9.19c.09-.33.15-.67.15-1.03,0-1.86-1.28-3.41-3-3.86v-18.28c1.72-.45,3-2,3-3.86,0-.36-.06-.7-.15-1.03l16.28-9.19c.73.75,1.74,1.22,2.87,1.22s2.14-.47,2.87-1.22l16.28,9.19c-.09.33-.15.67-.15,1.03,0,1.86,1.28,3.41,3,3.86v18.28c-1.72.45-3,2-3,3.86,0,.36.06.7.15,1.03l-4.28,2.42c-.48.27-.65.88-.38,1.36.18.33.52.51.87.51.17,0,.33-.04.49-.13l4.28-2.42c.73.75,1.74,1.23,2.87,1.23,2.21,0,4-1.79,4-4,0-1.86-1.28-3.41-3-3.86Zm-24,14.86c1.1,0,2,.9,2,2s-.9,2-2,2-2-.9-2-2,.9-2,2-2Zm-21-11c0,1.1-.9,2-2,2s-2-.9-2-2,.9-2,2-2,2,.9,2,2Zm-2-24c-1.1,0-2-.9-2-2s.9-2,2-2,2,.9,2,2-.9,2-2,2Zm23-13c-1.1,0-2-.9-2-2s.9-2,2-2,2,.9,2,2-.9,2-2,2Zm21,11c0-1.1.9-2,2-2s2,.9,2,2-.9,2-2,2-2-.9-2-2Zm2,28c-1.1,0-2-.9-2-2s.9-2,2-2,2,.9,2,2-.9,2-2,2Z"></path>
  <circle cx="44" cy="51.5" r="1"></circle>
</svg>
